<?xml version="1.0" encoding="UTF-8" standalone="no"?>
<!DOCTYPE svg PUBLIC "-//W3C//DTD SVG 1.1//EN"
 "http://www.w3.org/Graphics/SVG/1.1/DTD/svg11.dtd">
<!-- Generated by graphviz version 2.38.0 (20140413.2041)
 -->
<!-- Title: grafico Pages: 1 -->
<svg width="1261pt" height="87pt"
 viewBox="0.00 0.00 1261.00 87.00" xmlns="http://www.w3.org/2000/svg" xmlns:xlink="http://www.w3.org/1999/xlink">
<g id="graph0" class="graph" transform="scale(1 1) rotate(0) translate(4 83)">
<title>grafico</title>
<polygon fill="white" stroke="none" points="-4,4 -4,-83 1257,-83 1257,4 -4,4"/>
<g id="clust1" class="cluster"><title>cluster0</title>
<polygon fill="none" stroke="black" points="8,-8 8,-71 1245,-71 1245,-8 8,-8"/>
</g>
<!-- struct0 -->
<g id="node1" class="node"><title>struct0</title>
<polygon fill="none" stroke="black" points="16,-16.5 16,-62.5 234,-62.5 234,-16.5 16,-16.5"/>
<text text-anchor="middle" x="44" y="-35.8" font-family="Times New Roman,serif" font-size="14.00">Marvin</text>
<polyline fill="none" stroke="black" points="72,-16.5 72,-62.5 "/>
<text text-anchor="middle" x="104.5" y="-35.8" font-family="Times New Roman,serif" font-size="14.00">Martinez</text>
<polyline fill="none" stroke="black" points="137,-16.5 137,-62.5 "/>
<text text-anchor="middle" x="185.5" y="-47.3" font-family="Times New Roman,serif" font-size="14.00">Marvin25ronal</text>
<polyline fill="none" stroke="black" points="137,-39.5 234,-39.5 "/>
<text text-anchor="middle" x="185.5" y="-24.3" font-family="Times New Roman,serif" font-size="14.00">Jugar apex</text>
</g>
<!-- struct1 -->
<g id="node2" class="node"><title>struct1</title>
<polygon fill="none" stroke="black" points="252,-16.5 252,-62.5 408,-62.5 408,-16.5 252,-16.5"/>
<text text-anchor="middle" x="275.5" y="-35.8" font-family="Times New Roman,serif" font-size="14.00">Yaiza</text>
<polyline fill="none" stroke="black" points="299,-16.5 299,-62.5 "/>
<text text-anchor="middle" x="326" y="-35.8" font-family="Times New Roman,serif" font-size="14.00">Pineda</text>
<polyline fill="none" stroke="black" points="353,-16.5 353,-62.5 "/>
<text text-anchor="middle" x="380.5" y="-47.3" font-family="Times New Roman,serif" font-size="14.00">Bambi</text>
<polyline fill="none" stroke="black" points="353,-39.5 408,-39.5 "/>
<text text-anchor="middle" x="380.5" y="-24.3" font-family="Times New Roman,serif" font-size="14.00">Patinar</text>
</g>
<!-- struct0&#45;&gt;struct1 -->
<g id="edge1" class="edge"><title>struct0&#45;&gt;struct1</title>
<path fill="none" stroke="black" d="M234.307,-39.5C236.777,-39.5 239.248,-39.5 241.718,-39.5"/>
<polygon fill="black" stroke="black" points="241.875,-43.0001 251.875,-39.5 241.875,-36.0001 241.875,-43.0001"/>
</g>
<!-- struct2 -->
<g id="node3" class="node"><title>struct2</title>
<polygon fill="none" stroke="black" points="426,-16.5 426,-62.5 602,-62.5 602,-16.5 426,-16.5"/>
<text text-anchor="middle" x="458.5" y="-35.8" font-family="Times New Roman,serif" font-size="14.00">Jonathan</text>
<polyline fill="none" stroke="black" points="491,-16.5 491,-62.5 "/>
<text text-anchor="middle" x="517" y="-35.8" font-family="Times New Roman,serif" font-size="14.00">Lopez</text>
<polyline fill="none" stroke="black" points="543,-16.5 543,-62.5 "/>
<text text-anchor="middle" x="572.5" y="-47.3" font-family="Times New Roman,serif" font-size="14.00">Pancho</text>
<polyline fill="none" stroke="black" points="543,-39.5 602,-39.5 "/>
<text text-anchor="middle" x="572.5" y="-24.3" font-family="Times New Roman,serif" font-size="14.00">Comer</text>
</g>
<!-- struct1&#45;&gt;struct2 -->
<g id="edge2" class="edge"><title>struct1&#45;&gt;struct2</title>
<path fill="none" stroke="black" d="M408.344,-39.5C410.781,-39.5 413.219,-39.5 415.657,-39.5"/>
<polygon fill="black" stroke="black" points="415.678,-43.0001 425.678,-39.5 415.678,-36.0001 415.678,-43.0001"/>
</g>
<!-- struct3 -->
<g id="node4" class="node"><title>struct3</title>
<polygon fill="none" stroke="black" points="620.5,-16.5 620.5,-62.5 793.5,-62.5 793.5,-16.5 620.5,-16.5"/>
<text text-anchor="middle" x="652.5" y="-35.8" font-family="Times New Roman,serif" font-size="14.00">usuario1</text>
<polyline fill="none" stroke="black" points="684.5,-16.5 684.5,-62.5 "/>
<text text-anchor="middle" x="701" y="-35.8" font-family="Times New Roman,serif" font-size="14.00">bla</text>
<polyline fill="none" stroke="black" points="717.5,-16.5 717.5,-62.5 "/>
<text text-anchor="middle" x="755.5" y="-47.3" font-family="Times New Roman,serif" font-size="14.00">bla</text>
<polyline fill="none" stroke="black" points="717.5,-39.5 793.5,-39.5 "/>
<text text-anchor="middle" x="755.5" y="-24.3" font-family="Times New Roman,serif" font-size="14.00">Jugar apex</text>
</g>
<!-- struct2&#45;&gt;struct3 -->
<g id="edge3" class="edge"><title>struct2&#45;&gt;struct3</title>
<path fill="none" stroke="black" d="M602.207,-39.5C604.834,-39.5 607.46,-39.5 610.087,-39.5"/>
<polygon fill="black" stroke="black" points="610.218,-43.0001 620.218,-39.5 610.218,-36.0001 610.218,-43.0001"/>
</g>
<!-- struct4 -->
<g id="node5" class="node"><title>struct4</title>
<polygon fill="none" stroke="black" points="811.5,-16.5 811.5,-62.5 984.5,-62.5 984.5,-16.5 811.5,-16.5"/>
<text text-anchor="middle" x="843.5" y="-35.8" font-family="Times New Roman,serif" font-size="14.00">usuario2</text>
<polyline fill="none" stroke="black" points="875.5,-16.5 875.5,-62.5 "/>
<text text-anchor="middle" x="892" y="-35.8" font-family="Times New Roman,serif" font-size="14.00">bla</text>
<polyline fill="none" stroke="black" points="908.5,-16.5 908.5,-62.5 "/>
<text text-anchor="middle" x="946.5" y="-47.3" font-family="Times New Roman,serif" font-size="14.00">bla</text>
<polyline fill="none" stroke="black" points="908.5,-39.5 984.5,-39.5 "/>
<text text-anchor="middle" x="946.5" y="-24.3" font-family="Times New Roman,serif" font-size="14.00">Jugar apex</text>
</g>
<!-- struct3&#45;&gt;struct4 -->
<g id="edge4" class="edge"><title>struct3&#45;&gt;struct4</title>
<path fill="none" stroke="black" d="M793.547,-39.5C796.165,-39.5 798.783,-39.5 801.401,-39.5"/>
<polygon fill="black" stroke="black" points="801.5,-43.0001 811.5,-39.5 801.5,-36.0001 801.5,-43.0001"/>
</g>
<!-- struct5 -->
<g id="node6" class="node"><title>struct5</title>
<polygon fill="none" stroke="black" points="1003,-16.5 1003,-62.5 1237,-62.5 1237,-16.5 1003,-16.5"/>
<text text-anchor="middle" x="1035" y="-35.8" font-family="Times New Roman,serif" font-size="14.00">usuario3</text>
<polyline fill="none" stroke="black" points="1067,-16.5 1067,-62.5 "/>
<text text-anchor="middle" x="1098" y="-35.8" font-family="Times New Roman,serif" font-size="14.00">sale edd</text>
<polyline fill="none" stroke="black" points="1129,-16.5 1129,-62.5 "/>
<text text-anchor="middle" x="1183" y="-47.3" font-family="Times New Roman,serif" font-size="14.00">vamos con todo</text>
<polyline fill="none" stroke="black" points="1129,-39.5 1237,-39.5 "/>
<text text-anchor="middle" x="1183" y="-24.3" font-family="Times New Roman,serif" font-size="14.00">100 en la fase 1</text>
</g>
<!-- struct4&#45;&gt;struct5 -->
<g id="edge5" class="edge"><title>struct4&#45;&gt;struct5</title>
<path fill="none" stroke="black" d="M984.719,-39.5C987.377,-39.5 990.036,-39.5 992.695,-39.5"/>
<polygon fill="black" stroke="black" points="992.95,-43.0001 1002.95,-39.5 992.95,-36.0001 992.95,-43.0001"/>
</g>
</g>
</svg>
